<?xml version="1.0" encoding="utf-8"?>
<!-- Generator: Adobe Illustrator 21.0.2, SVG Export Plug-In . SVG Version: 6.00 Build 0)  -->
<svg version="1.1" xmlns="http://www.w3.org/2000/svg" xmlns:xlink="http://www.w3.org/1999/xlink" x="0px" y="0px"
	 viewBox="0 0 64 64" style="enable-background:new 0 0 64 64;" xml:space="preserve">
<style type="text/css">
	.st0{fill:none;stroke:#676767;stroke-miterlimit:10;}
</style>
<g id="Sports">
	<g>
		<path class="st0" d="M51.2,13.2c3.9,3.8,2.7,20.6-7.5,30.9c-10.2,10.4-27,11.8-30.8,7.9c-3.9-3.8-2.9-20.4,7.5-30.9
			C30.8,10.5,47.3,9.4,51.2,13.2z"/>
		<line class="st0" x1="11.8" y1="36.5" x2="28.4" y2="52.8"/>
		<line class="st0" x1="35.7" y1="12.3" x2="52.3" y2="28.7"/>
		<line class="st0" x1="26.2" y1="38.5" x2="38.8" y2="25.7"/>
		<line class="st0" x1="26.2" y1="33.8" x2="31.4" y2="38.9"/>
		<line class="st0" x1="30.2" y1="29.8" x2="35.3" y2="34.9"/>
		<line class="st0" x1="34.3" y1="25.5" x2="39.5" y2="30.7"/>
	</g>
</g>
<g id="Storms">
	<g>
		<path class="st0" d="M23.1,39.1C13.9,42.8,9.5,35.5,9.5,31c0-4.5,3.7-8.2,8.2-8.2c0.6,0,1.1,0.1,1.6,0.2c0-0.1,0-0.3,0-0.4
			c0-6.8,5.5-12.3,12.3-12.3c5.3,0,9.8,3.4,11.5,8.1c0.6-0.1,1.2-0.2,1.8-0.2c5.3,0,9.5,4.3,9.5,9.5c0,5.3-5.2,13.3-15,9.5"/>
		<polygon class="st0" points="33.6,29.2 27.5,41.9 33.6,42.1 30.6,55 36.4,39.1 30.9,39.7 		"/>
	</g>
</g>
<g id="Terrorism">
	<g>
		<polyline class="st0" points="6,54.9 12.5,50.1 3,43.2 15.5,40.5 12.2,24.1 24.2,30.7 34.4,10.3 37.7,32.6 46.3,27.4 46.3,38.2 
			61,39.6 49,49.5 52.3,54.9 		"/>
		<polyline class="st0" points="19.7,54.9 23,51.6 19.7,45.6 23,45.6 21.4,37.9 29,40.8 32,32.6 33.2,43.8 38.9,40.5 38.9,45.6 
			42.5,45.9 39.5,49.5 44.2,54.9 		"/>
	</g>
</g>
</svg>
